<?xml version="1.0" encoding="UTF-8"?>
<svg id="Layer_1" data-name="Layer 1" xmlns="http://www.w3.org/2000/svg" viewBox="0 0 600 561.03">
  <defs>
    <style>
      .cls-1 {
        fill: #fff;
      }

      .cls-2 {
        fill: #1da1f2;
      }
    </style>
  </defs>
  <rect class="cls-1" x="0" width="600" height="561.03"/>
  <g>
    <path class="cls-2" d="m482.03,422.88c6.99-7.51-2.24-18.86-11.1-13.68-22.58,13.19-53.16,25.16-92.98,28.68-53.97,4.78-99.73-49.77-116.18-85.41l-84.5,48.03c38.04,53.21,100.31,87.96,170.57,87.96,58.76,0,104.4-33.56,134.2-65.58Z"/>
    <path class="cls-2" d="m530.99,175.7l-9.23-13.72c-2.22-3.3-4.53-6.52-6.92-9.67-39.56-52.15-101.13-82.95-167-82.95-115.55,0-209.55,94-209.55,209.55,0,19.77,3.22,39.73,8.61,58.32l94.01-49.04c-6.31-38.1-7.76-114.73,56.48-155.62,116.7-67.22,214.36,35.6,218.59,40.78l-362.35,183.64-24.66,12.87-8.72,4.55-35.06-45.55c-6.34-8.85-19.97-.74-15.24,9.06,14.11,29.27,35.84,64.36,36.05,64.62,4.25,6.41,13.38,8.29,19.78,3.6.14-.1,40.3-23.01,40.3-23.01l89.3-50.76,275.61-156.67Z"/>
  </g>
</svg>