<?xml version="1.0" encoding="UTF-8"?>
<svg id="Layer_1" data-name="Layer 1" xmlns="http://www.w3.org/2000/svg" viewBox="0 0 600 114.04">
  <defs>
    <style>
      .cls-1 {
        fill: #fff;
      }

      .cls-2 {
        fill: #14171a;
      }

      .cls-3 {
        fill: #1da1f2;
      }
    </style>
  </defs>
  <rect class="cls-1" y="0" width="600" height="114.04"/>
  <g>
    <g>
      <path class="cls-3" d="m97.8,85.96c1.42-1.53-.46-3.83-2.26-2.78-4.59,2.68-10.81,5.11-18.9,5.83-10.97.97-20.28-10.12-23.62-17.36l-17.18,9.76c7.73,10.82,20.39,17.88,34.67,17.88,11.95,0,21.22-6.82,27.28-13.33Z"/>
      <path class="cls-3" d="m107.76,35.71l-1.88-2.79c-.45-.67-.92-1.33-1.41-1.97-8.04-10.6-20.56-16.86-33.95-16.86-23.49,0-42.6,19.11-42.6,42.6,0,4.02.66,8.08,1.75,11.86l19.11-9.97c-1.28-7.75-1.58-23.32,11.48-31.64,23.72-13.66,43.58,7.24,44.44,8.29L31.04,72.56l-5.01,2.62-1.77.92-7.13-9.26c-1.29-1.8-4.06-.15-3.1,1.84,2.87,5.95,7.29,13.08,7.33,13.14.86,1.3,2.72,1.68,4.02.73.03-.02,8.19-4.68,8.19-4.68l18.15-10.32,56.03-31.85Z"/>
    </g>
    <path class="cls-3" d="m281.42,100.07c-.48.02-.96.03-1.43.03-.03,0-.07,0-.1,0,.51,0,1.02,0,1.53-.03Z"/>
    <path class="cls-3" d="m281.38,90.49h-.08s-.08,0-.12.01c.07,0,.14,0,.21-.01Z"/>
    <g>
      <path class="cls-2" d="m352.15,14.09h-31.95s1.46,58.76,2.95,84.29c.13,2.29,3.51,2.3,3.65.01,1.44-22.72,2.96-74.73,2.96-74.73h22.38c12.36,0,22.38,10.02,22.38,22.38v1.87c0,7.52-6.1,13.62-13.62,13.62h-25.26c-2.49,0-4.67,1.84-4.9,4.32-.27,2.84,1.97,5.24,4.76,5.24h25.4c12.8,0,23.18-10.38,23.18-23.18v-1.87c0-17.64-14.3-31.95-31.95-31.95Z"/>
      <path class="cls-2" d="m450.48,40.39c-2.67-14.93-15.76-26.3-31.45-26.3-15.69,0-28.77,11.37-31.45,26.3-.33,1.83-.5,3.72-.5,5.65,0,0,1.82,36.26,3.3,52.41.2,2.14,3.28,2.24,3.63.12,1.32-8.15,2.64-27.61,2.64-27.61.36.09.74.13,1.12.13h42.51c.39,0,.76-.05,1.12-.13,0,0,1.31,19.46,2.64,27.61.34,2.12,3.43,2.02,3.63-.12,1.48-16.14,3.3-52.41,3.3-52.41,0-1.93-.17-3.81-.5-5.65Zm-9.07,21.27c-.36-.09-.74-.13-1.12-.13h-42.51c-.39,0-.76.05-1.12.13v-15.62c0-7.13,3.36-13.5,8.57-17.6,3.81-2.99,8.6-4.78,13.81-4.78h0c5.21,0,10,1.79,13.81,4.78,5.22,4.1,8.57,10.47,8.57,17.6v15.62Z"/>
      <path class="cls-2" d="m519.21,71.21c.08,8.22-2.44,14.99-7.5,20.09-5.31,5.36-13.3,8.45-22.63,8.77-.5.02-1.02.03-1.53.03-.05,0-.09,0-.13,0-.24,0-.47,0-.71,0-13.61-.29-24.72-11.03-25.8-24.61-.02-.23-.04-.56-.07-.98-.13-2.04,2.67-2.72,3.5-.85.09.2.16.36.22.48,2.6,5.17,5,7.81,7.03,9.85,4.23,4.23,9.85,6.55,15.83,6.55h.23c.21,0,.43,0,.64,0,.11,0,.22,0,.33-.01.07,0,.14,0,.21,0,.04,0,.08,0,.12,0,.5-.02,1-.05,1.49-.09.7-.05,1.38-.13,2.04-.22.19-.03.38-.06.58-.09.19-.03.38-.06.57-.1.75-.13,1.49-.3,2.2-.48.36-.09.7-.19,1.05-.3.35-.11.7-.22,1.03-.35.13-.05.26-.09.39-.14.04-.01.07-.02.1-.04.11-.04.22-.09.32-.13.15-.06.31-.12.45-.19.16-.06.32-.14.48-.21.16-.07.32-.15.47-.22.16-.07.31-.15.46-.23.14-.07.28-.15.42-.22.05-.03.09-.05.14-.08.11-.06.22-.12.33-.19.29-.17.57-.34.84-.53.19-.12.38-.26.57-.39.08-.05.16-.11.24-.17.65-.48,1.25-1.01,1.8-1.56,3.2-3.23,4.79-7.69,4.73-13.27,0-.15-.01-.31-.04-.47-.24-1.68-1.57-3.86-2.86-5.13-.19-.19-.39-.37-.6-.56-1.9-1.64-4.61-2.93-8.25-3.94-7.98-2.23-16.54-2.32-25.34-2.23-1.26.01-3.89.05-6.73-.84-.53-.17-1.05-.36-1.54-.57-2.94-1.26-5.18-3.33-6.67-6.18-1.34-2.55-1.82-5.36-1.75-8.18.14-4.75,1.89-9.5,3.93-12.92,3.33-5.6,8.08-10.06,13.72-12.89,3.75-1.88,7.93-3,12.08-3.24.15,0,.31-.01.46-.02.06,0,.13,0,.2,0,.16,0,.31-.01.46-.01.27,0,.54,0,.81,0h.13c.24,0,.47,0,.71,0,13.61.3,24.72,11.04,25.8,24.61.03.32.05.7.08,1.13.13,2.04-2.67,2.73-3.5.86-.37-.85-.71-1.57-.98-2.06-2.31-4.25-4.45-6.59-6.29-8.43-4.23-4.23-9.85-6.55-15.82-6.55h-.23c-.3,0-.59,0-.9.02-.02,0-.05,0-.06,0-.11,0-.21,0-.32.02-2.85.16-5.73.94-8.33,2.24-3.95,1.98-7.43,5.26-9.8,9.24-1.55,2.61-2.45,5.67-2.54,8.2-.05,1.41.14,2.66.62,3.57.43.82,1.13,1.65,2.84,2.11.88.23,2.02.37,3.54.35,9.53-.1,18.83.02,28.01,2.57,2.83.79,5.31,1.75,7.47,2.9,1.02.54,1.96,1.12,2.84,1.75.99.7,1.9,1.47,2.72,2.28,2.69,2.68,5.58,7.24,5.71,12.09,0,.07,0,.14,0,.21Z"/>
      <path class="cls-2" d="m586.17,71.21c.08,8.22-2.44,14.99-7.5,20.09-5.31,5.36-13.3,8.45-22.63,8.77-.5.02-1.02.03-1.53.03-.05,0-.09,0-.13,0-.24,0-.47,0-.71,0-13.61-.29-24.72-11.03-25.8-24.61-.02-.23-.04-.57-.07-.99-.13-2.04,2.68-2.72,3.5-.85.11.24.2.44.27.58,2.58,5.11,4.96,7.74,6.98,9.76,4.23,4.23,9.85,6.55,15.83,6.55h.23c.21,0,.43,0,.64,0,.11,0,.22,0,.33-.01.07,0,.14,0,.21,0,.04,0,.08,0,.12,0,.5-.02,1-.05,1.49-.09.7-.05,1.38-.13,2.04-.22.19-.03.38-.06.58-.09.19-.03.38-.06.57-.1.75-.13,1.49-.3,2.2-.48.36-.09.7-.19,1.05-.3.35-.11.7-.22,1.03-.35.13-.05.26-.09.39-.14.04-.01.07-.02.1-.04.11-.04.22-.09.32-.13.15-.06.31-.12.45-.19.16-.06.32-.14.48-.21.16-.07.32-.15.47-.22.16-.07.31-.15.46-.23.14-.07.28-.15.42-.22.05-.03.09-.05.14-.08.11-.06.22-.12.33-.19.29-.17.57-.34.84-.53.19-.12.38-.26.57-.39.08-.05.16-.11.24-.17.65-.48,1.25-1.01,1.8-1.56,3.2-3.23,4.79-7.69,4.73-13.27,0-.15-.01-.31-.04-.47-.24-1.68-1.57-3.86-2.86-5.13-.19-.19-.39-.37-.6-.56-1.9-1.64-4.61-2.93-8.25-3.94-7.98-2.23-16.54-2.32-25.34-2.23-1.26.01-3.89.05-6.73-.84-.53-.17-1.05-.36-1.54-.57-2.94-1.26-5.18-3.33-6.67-6.18-1.34-2.55-1.82-5.36-1.75-8.18.14-4.75,1.89-9.5,3.93-12.92,3.33-5.6,8.08-10.06,13.72-12.89,3.75-1.88,7.93-3,12.08-3.24.15,0,.31-.01.46-.02.06,0,.13,0,.2,0,.16,0,.31-.01.46-.01.27,0,.54,0,.81,0h.13c.24,0,.47,0,.71,0,13.61.3,24.72,11.04,25.8,24.61.03.32.05.7.08,1.13.13,2.04-2.67,2.73-3.5.86-.37-.85-.71-1.57-.98-2.06-2.31-4.25-4.45-6.59-6.29-8.43-4.23-4.23-9.85-6.55-15.82-6.55h-.23c-.3,0-.59,0-.9.02-.02,0-.05,0-.06,0-.11,0-.21,0-.32.02-2.85.16-5.73.94-8.33,2.24-3.95,1.98-7.43,5.26-9.8,9.24-1.55,2.61-2.45,5.67-2.54,8.2-.05,1.41.14,2.66.62,3.57.43.82,1.13,1.65,2.84,2.11.88.23,2.02.37,3.54.35,9.53-.1,18.83.02,28.01,2.57,2.83.79,5.31,1.75,7.47,2.9,1.02.54,1.96,1.12,2.84,1.75.99.7,1.9,1.47,2.72,2.28,2.69,2.68,5.58,7.24,5.71,12.09,0,.07,0,.14,0,.21Z"/>
    </g>
    <g>
      <path class="cls-3" d="m175.93,40.39c-2.67-14.93-15.76-26.3-31.45-26.3-15.69,0-28.77,11.37-31.45,26.3-.33,1.83-.5,3.72-.5,5.65,0,0,1.82,36.26,3.3,52.41.2,2.14,3.28,2.24,3.63.12,1.32-8.15,2.64-27.61,2.64-27.61.36.09.74.13,1.12.13h42.51c.39,0,.76-.05,1.12-.13,0,0,1.31,19.46,2.64,27.61.34,2.12,3.43,2.02,3.63-.12,1.48-16.14,3.3-52.41,3.3-52.41,0-1.93-.17-3.81-.5-5.65Zm-9.07,21.27c-.36-.09-.74-.13-1.12-.13h-42.51c-.39,0-.76.05-1.12.13v-15.62c0-7.13,3.36-13.5,8.57-17.6,3.81-2.99,8.6-4.78,13.81-4.78h0c5.21,0,10,1.79,13.81,4.78,5.22,4.1,8.57,10.47,8.57,17.6v15.62Z"/>
      <path class="cls-3" d="m244.67,71.21c.08,8.22-2.44,14.99-7.5,20.09-5.31,5.36-13.3,8.45-22.63,8.77-.5.02-1.02.03-1.53.03-.05,0-.09,0-.13,0-.24,0-.47,0-.71,0-13.61-.29-24.72-11.03-25.8-24.61-.02-.23-.04-.56-.07-.98-.13-2.04,2.67-2.72,3.5-.85.09.2.16.36.22.48,2.6,5.17,5,7.81,7.03,9.85,4.23,4.23,9.85,6.55,15.83,6.55h.23c.21,0,.43,0,.64,0,.11,0,.22,0,.33-.01.07,0,.14,0,.21,0,.04,0,.08,0,.12,0,.5-.02,1-.05,1.49-.09.7-.05,1.38-.13,2.04-.22.19-.03.38-.06.58-.09.19-.03.38-.06.57-.1.75-.13,1.49-.3,2.2-.48.36-.09.7-.19,1.05-.3.35-.11.7-.22,1.03-.35.13-.05.26-.09.39-.14.04-.01.07-.02.1-.04.11-.04.22-.09.32-.13.15-.06.31-.12.45-.19.16-.06.32-.14.48-.21.16-.07.32-.15.47-.22.16-.07.31-.15.46-.23.14-.07.28-.15.42-.22.05-.03.09-.05.14-.08.11-.06.22-.12.33-.19.29-.17.57-.34.84-.53.19-.12.38-.26.57-.39.08-.05.16-.11.24-.17.65-.48,1.25-1.01,1.8-1.56,3.2-3.23,4.79-7.69,4.73-13.27,0-.15-.01-.31-.04-.47-.24-1.68-1.57-3.86-2.86-5.13-.19-.19-.39-.37-.6-.56-1.9-1.64-4.61-2.93-8.25-3.94-7.98-2.23-16.54-2.32-25.34-2.23-1.26.01-3.89.05-6.73-.84-.53-.17-1.05-.36-1.54-.57-2.94-1.26-5.18-3.33-6.67-6.18-1.34-2.55-1.82-5.36-1.75-8.18.14-4.75,1.89-9.5,3.93-12.92,3.33-5.6,8.08-10.06,13.72-12.89,3.75-1.88,7.93-3,12.08-3.24.15,0,.31-.01.46-.02.06,0,.13,0,.2,0,.16,0,.31-.01.46-.01.27,0,.54,0,.81,0h.13c.24,0,.47,0,.71,0,13.61.3,24.72,11.04,25.8,24.61.03.32.05.7.08,1.13.13,2.04-2.67,2.73-3.5.86-.37-.85-.71-1.57-.98-2.06-2.31-4.25-4.45-6.59-6.29-8.43-4.23-4.23-9.85-6.55-15.82-6.55h-.23c-.3,0-.59,0-.9.02-.02,0-.05,0-.06,0-.11,0-.21,0-.32.02-2.85.16-5.73.94-8.33,2.24-3.95,1.98-7.43,5.26-9.8,9.24-1.55,2.61-2.45,5.67-2.54,8.2-.05,1.41.14,2.66.62,3.57.43.82,1.13,1.65,2.84,2.11.88.23,2.02.37,3.54.35,9.53-.1,18.83.02,28.01,2.57,2.83.79,5.31,1.75,7.47,2.9,1.02.54,1.96,1.12,2.84,1.75.99.7,1.9,1.47,2.72,2.28,2.69,2.68,5.58,7.24,5.71,12.09,0,.07,0,.14,0,.21Z"/>
      <path class="cls-3" d="m249.68,49.08c2.18,6.64,6.48,12.37,12.16,16.31.06.04.12.08.17.12.02.01.03.02.05.03,3.83,2.61,8.27,4.42,13.09,5.17v24.38c0,2.54,1.88,4.76,4.41,5,2.9.27,5.35-2.01,5.35-4.86v-24.52c4.82-.74,9.26-2.55,13.09-5.17.02-.01.03-.02.05-.03.06-.04.12-.08.17-.12,5.67-3.94,9.98-9.66,12.16-16.31.01-.04.02-.08.04-.12.1-.32.2-.64.29-.96,1.16-4.03,1.35-8.27.73-12.41-.58-3.85-1.56-15.15-2.59-20.05-.4-1.91-3.14-1.91-3.54,0-1.15,5.54-2.27,17.86-2.79,21.44-.18,1.23-.28,2.46-.37,3.7-.07,1-.2,1.99-.4,2.95-.22,1.08-.52,2.13-.9,3.15-.25.68-.53,1.34-.84,1.99-3.58,7.43-11.19,12.57-19.98,12.57h0c-8.79,0-16.39-5.14-19.98-12.57-.31-.65-.59-1.31-.84-1.99-.37-1.02-.67-2.07-.9-3.15-.2-.96-.33-1.94-.4-2.95-.08-1.24-.19-2.47-.37-3.7-.53-3.57-1.64-15.9-2.79-21.44-.4-1.91-3.14-1.91-3.54,0-1.03,4.9-2.01,16.21-2.59,20.05-.62,4.14-.43,8.38.73,12.41.09.32.19.64.29.96.01.04.02.08.04.12Z"/>
    </g>
  </g>
</svg>